<?xml version="1.0" standalone="no"?>
<!DOCTYPE svg PUBLIC "-//W3C//DTD SVG 20010904//EN"
 "http://www.w3.org/TR/2001/REC-SVG-20010904/DTD/svg10.dtd">
<svg version="1.0" xmlns="http://www.w3.org/2000/svg"
 width="81.000000pt" height="71.000000pt" viewBox="0 0 81.000000 71.000000"
 preserveAspectRatio="xMidYMid meet">

<g transform="translate(0.000000,71.000000) scale(0.100000,-0.100000)"
fill="#000000" stroke="none">
<path d="M595 672 c-11 -3 -31 -8 -44 -13 -19 -8 -21 -12 -11 -24 10 -12 6
-23 -25 -60 -74 -91 -179 -110 -292 -52 -52 26 -53 26 -64 6 -13 -25 -16 -21
51 -55 58 -29 142 -42 203 -30 49 9 122 61 158 111 18 24 39 45 49 47 15 3 16
8 6 38 -9 28 -15 35 -31 32z"/>
<path d="M390 625 c0 -22 -43 -36 -78 -26 -23 7 -35 4 -57 -13 l-28 -22 29
-11 c82 -32 151 -20 201 34 18 19 33 39 33 44 0 5 -22 9 -50 9 -38 0 -50 -4
-50 -15z"/>
<path d="M554 485 c-100 -100 -197 -118 -336 -61 -55 23 -58 23 -58 5 0 -11
-8 -27 -18 -37 -14 -14 -16 -24 -8 -60 5 -23 14 -42 21 -42 13 0 49 -72 50
-100 0 -23 59 -72 71 -60 14 14 83 -10 90 -32 9 -28 87 -25 106 4 12 17 25 22
66 23 57 1 93 24 90 59 -2 25 29 76 47 76 19 0 32 21 40 63 6 29 4 37 -8 37
-18 0 -30 89 -14 108 8 10 6 22 -8 48 -27 51 -57 44 -131 -31z"/>
</g>
</svg>
